Coordinates
version=1
nRows=20
nColumns=38
inDegrees=no

Units are S.I. units (second, meters, Newtons, ...)
If the header above contains a line with 'inDegrees', this indicates whether rotational values are in degrees (yes) or radians (no).

endheader
time	pelvis_tilt	pelvis_list	pelvis_rotation	pelvis_tx	pelvis_ty	pelvis_tz	hip_flexion_r	hip_adduction_r	hip_rotation_r	knee_angle_r	ankle_angle_r	subtalar_angle_r	mtp_angle_r	hip_flexion_l	hip_adduction_l	hip_rotation_l	knee_angle_l	ankle_angle_l	subtalar_angle_l	mtp_angle_l	lumbar_extension	lumbar_bending	lumbar_rotation	arm_flex_r	arm_add_r	arm_rot_r	elbow_flex_r	pro_sup_r	wrist_flex_r	wrist_dev_r	arm_flex_l	arm_add_l	arm_rot_l	elbow_flex_l	pro_sup_l	wrist_flex_l	wrist_dev_l
0	0.711276	1.52523	-2.23758	0.651332	1.84939	0.961578	-0.129447	-0.0455624	-0.152543	0.0254068	0.0311407	0	0	-0.151174	0.0299488	-0.167999	0.0164298	0.0577896	0	0	-0.0201483	-0.0441098	-0.0265116	-0.0742175	-0.0913922	-0.436819	0.147054	1.5708	0	0	0.0496406	-0.144581	0.0720754	0.365174	1.45643	0	0
0.01	0.729842	1.52353	-2.25336	0.65125	1.84892	0.961503	-0.132208	-0.046502	-0.154265	0.0238508	0.0318486	0	0	-0.153099	0.031559	-0.167184	0.0148895	0.0573412	0	0	-0.0195688	-0.0454892	-0.0260619	-0.0757337	-0.0916703	-0.439159	0.148484	1.5708	0	0	0.047598	-0.141029	0.0802019	0.363631	1.46753	0	0
0.02	0.733037	1.52173	-2.25504	0.651037	1.84847	0.961452	-0.13561	-0.0470823	-0.154816	0.0216481	0.0320154	0	0	-0.155948	0.0327297	-0.167258	0.0129051	0.0569635	0	0	-0.0196321	-0.0464589	-0.0240962	-0.0775287	-0.0918584	-0.440527	0.150897	1.5708	0	0	0.0456442	-0.137321	0.0887726	0.362459	1.48338	0	0
0.03	0.726664	1.52013	-2.24785	0.650705	1.84797	0.961394	-0.139304	-0.0472052	-0.15495	0.0190579	0.0319278	0	0	-0.159044	0.0333289	-0.16772	0.0109474	0.0568134	0	0	-0.019823	-0.0468879	-0.0218514	-0.0789936	-0.0921497	-0.441224	0.153068	1.5708	0	0	0.0442496	-0.133065	0.0977503	0.35954	1.49932	0	0
0.04	0.71547	1.5191	-2.23624	0.65029	1.84739	0.961318	-0.142777	-0.0466996	-0.15487	0.0163146	0.0315811	0	0	-0.161886	0.0332766	-0.167403	0.00912709	0.056734	0	0	-0.0195562	-0.0466231	-0.019583	-0.0798141	-0.0924851	-0.443725	0.154037	1.5708	0	0	0.0417231	-0.128939	0.107589	0.358562	1.51585	0	0
0.05	0.714233	1.51892	-2.23502	0.649914	1.84691	0.961212	-0.144606	-0.0462942	-0.154242	0.0143197	0.0313261	0	0	-0.162933	0.0331342	-0.166665	0.00852797	0.0569831	0	0	-0.0183534	-0.0459188	-0.016831	-0.0804368	-0.0929994	-0.445843	0.154802	1.5708	0	0	0.0388874	-0.124621	0.117206	0.356586	1.53353	0	0
0.06	0.716962	1.51758	-2.23587	0.64954	1.84664	0.961158	-0.147875	-0.0463552	-0.155144	0.0112664	0.0307108	0	0	-0.163549	0.0332368	-0.164121	0.00974351	0.057617	0	0	-0.0179317	-0.0460286	-0.0129215	-0.0820368	-0.0926352	-0.45239	0.156397	1.5708	0	0	0.0431747	-0.139763	0.154717	0.373038	1.5708	0	0
0.07	0.720848	1.51773	-2.23802	0.649367	1.84651	0.961146	-0.149075	-0.0458374	-0.156171	0.00926923	0.0298621	0	0	-0.162139	0.0325342	-0.161967	0.0120083	0.0585684	0	0	-0.0174415	-0.0452134	-0.012606	-0.0808135	-0.0932971	-0.452681	0.156424	1.5708	0	0	0.0400343	-0.134319	0.164523	0.372532	1.5708	0	0
0.08	0.729082	1.51919	-2.2448	0.649325	1.84638	0.961137	-0.148792	-0.0448856	-0.156806	0.00749218	0.028453	0	0	-0.159111	0.0312814	-0.160552	0.0149543	0.059754	0	0	-0.0163585	-0.0439548	-0.0141919	-0.0775622	-0.0943852	-0.45253	0.15439	1.5708	0	0	0.0308382	-0.111624	0.154455	0.351768	1.5708	0	0
0.09	0.748598	1.51958	-2.26282	0.649155	1.84615	0.961111	-0.14914	-0.0449729	-0.158171	0.0058744	0.0279809	0	0	-0.15673	0.0310458	-0.159741	0.0178622	0.0609964	0	0	-0.0147742	-0.0438327	-0.0130153	-0.076295	-0.0946947	-0.454841	0.153533	1.5708	0	0	0.0268254	-0.10774	0.173411	0.353927	1.5708	0	0
0.1	0.782016	1.52054	-2.29608	0.648971	1.84587	0.961033	-0.148052	-0.0455589	-0.15816	0.00492557	0.0278532	0	0	-0.15356	0.0312453	-0.161008	0.020604	0.062183	0	0	-0.0118702	-0.0436296	-0.0105396	-0.0754668	-0.0953089	-0.455319	0.152765	1.5708	0	0	0.0224066	-0.103563	0.192168	0.355171	1.5708	0	0
0.11	0.815879	1.52174	-2.32958	0.648838	1.84565	0.960957	-0.146686	-0.045926	-0.158067	0.00399819	0.0275336	0	0	-0.150137	0.0312234	-0.161502	0.0233244	0.0631716	0	0	-0.00923031	-0.0429277	-0.00853708	-0.0744387	-0.0958344	-0.45503	0.152319	1.5708	0	0	0.0179834	-0.0993125	0.210581	0.356306	1.5708	0	0
0.12	0.905589	1.54129	-2.41188	0.649548	1.8462	0.958866	-0.127371	-0.0328018	-0.161689	0.0077831	0.0293701	0	0	-0.116331	0.0172828	-0.150576	0.0441295	0.0705701	0	0	0.00866209	-0.0276931	-0.0124747	-0.0759323	-0.0998702	-0.456882	0.153222	1.5708	0	0	0.0126128	-0.0922413	0.23539	0.357552	1.5708	0	0
0.13	0.889241	1.52487	-2.40166	0.648728	1.84538	0.960769	-0.142495	-0.0459899	-0.158578	0.00331893	0.0273235	0	0	-0.141899	0.0305369	-0.162089	0.0297828	0.0663906	0	0	-0.00399909	-0.0404645	-0.00476343	-0.0726944	-0.0969795	-0.45532	0.153932	1.5708	0	0	0.00966011	-0.0917936	0.25826	0.359919	1.5708	0	0
0.14	0.938676	1.52708	-2.45045	0.64876	1.84537	0.960606	-0.139022	-0.0458016	-0.159531	0.00363875	0.0273841	0	0	-0.136374	0.0300083	-0.162784	0.0337263	0.0683136	0	0	-0.000886294	-0.0387106	-0.00312883	-0.0725477	-0.0976876	-0.449509	0.157114	1.5708	0	0	0.00598834	-0.0879573	0.282553	0.362436	1.5708	0	0
0.15	1.009	1.52946	-2.52043	0.648812	1.84539	0.960387	-0.134582	-0.0458683	-0.160327	0.00415662	0.0275607	0	0	-0.129777	0.0297539	-0.164929	0.0380084	0.0702456	0	0	0.00280694	-0.0368835	-0.00150822	-0.0728813	-0.0982181	-0.439861	0.161943	1.5708	0	0	0.00296461	-0.0840109	0.300726	0.364965	1.5708	0	0
0.16	1.09225	1.53171	-2.6042	0.64877	1.84529	0.960147	-0.130364	-0.0458748	-0.159443	0.00386151	0.027378	0	0	-0.123662	0.0296514	-0.168574	0.04124	0.0720254	0	0	0.00701892	-0.0350775	0.000835788	-0.0735076	-0.0986998	-0.43085	0.16667	1.5708	0	0	0.000990585	-0.0802103	0.306612	0.365085	1.5708	0	0
0.17	1.1637	1.53318	-2.67557	0.64873	1.84522	0.959988	-0.127686	-0.0457603	-0.158778	0.00264734	0.0266881	0	0	-0.11893	0.0295559	-0.171002	0.043704	0.07347	0	0	0.00979501	-0.0336083	0.00230779	-0.073392	-0.0994299	-0.424564	0.170286	1.5708	0	0	0.000127195	-0.0781225	0.304249	0.364572	1.5708	0	0
0.18	1.21667	1.53386	-2.72804	0.648707	1.8452	0.959901	-0.126334	-0.0458665	-0.158845	0.00110891	0.026	0	0	-0.115623	0.0297522	-0.172002	0.0454521	0.0742435	0	0	0.0111281	-0.0326428	0.00355876	-0.0737062	-0.0998208	-0.414553	0.175893	1.5708	0	0	2.57253e-05	-0.0785335	0.300495	0.367079	1.5708	0	0
0.19	0.935839	1.52958	-2.45767	0.645157	1.84394	0.961423	-0.141951	-0.0394577	-0.151091	0	0.020882	0	0	-0.138875	0.0264195	-0.16803	0.0285893	0.0641316	0	0	-0.00115203	-0.0342133	0.0154989	-0.0687953	-0.0922412	-0.425177	0.17264	1.5708	0	0	-0.000533884	-0.0884204	0.301271	0.374408	1.5708	0	0
